# xmcd
#
# Track frame offsets:
#	150
#	14980
#	29923
#	42772
#	56156
#	76327
#	88145
#	105426
#	120292
#	139670
#	154868
#	166010
#	180078
#	191638
#	206282
#	226776
#	244361
#	263769
#	281201
#	302649
#	319814
#	342323
#	342868
#
# Disc length: 4740 seconds
#
# Revision: 0
# Processed by: cddbd v1.5PL3 Copyright (c) Steve Scherf et al.
# Submitted via: audiograbber 1.81.03
#
DISCID=3f128217
DTITLE=Robbie Williams - Swing when you're winning
DYEAR=1900
DGENRE=
TTITLE0=I will talk and Hollywood will listen
TTITLE1=Mack the knife
TTITLE2=Somethin' stupid
TTITLE3=Do nothin' till you hear from me
TTITLE4=It was a very good year
TTITLE5=Straighten up and fly right
TTITLE6=Well, did you evah
TTITLE7=Mr. Bojangles
TTITLE8=One for my baby
TTITLE9=Things
TTITLE10=Ain't that a kick in the head
TTITLE11=They can't take that away from me
TTITLE12=Have you met miss Jones?
TTITLE13=Me and my shadow
TTITLE14=Beyond the sea
TTITLE15=The road to Mandalay
TTITLE16=Supreme
TTITLE17=We are the champions (with Queen)
TTITLE18=Kids
TTITLE19=Toxic
TTITLE20=Eternity
TTITLE21=The End
TTITLE22=Robbie and Orchestra (Repetition)
EXTD=
EXTT0=
EXTT1=
EXTT2=
EXTT3=
EXTT4=
EXTT5=
EXTT6=
EXTT7=
EXTT8=
EXTT9=
EXTT10=
EXTT11=
EXTT12=
EXTT13=
EXTT14=
EXTT15=
EXTT16=
EXTT17=
EXTT18=
EXTT19=
EXTT20=
EXTT21=
EXTT22=
PLAYORDER=
